<?xml version="1.0" encoding="UTF-8" standalone="no"?>
<!DOCTYPE svg PUBLIC "-//W3C//DTD SVG 1.1//EN" "http://www.w3.org/Graphics/SVG/1.1/DTD/svg11.dtd">
<svg width="100%" height="100%" viewBox="0 0 1339 279" version="1.1" xmlns="http://www.w3.org/2000/svg" xmlns:xlink="http://www.w3.org/1999/xlink" xml:space="preserve" xmlns:serif="http://www.serif.com/" style="fill-rule:evenodd;clip-rule:evenodd;stroke-linecap:round;stroke-miterlimit:1.5;">
    <g transform="matrix(1.22112,0,0,1.22112,-1898.15,-1039.52)">
        <g transform="matrix(1,0,0,1,1.01202,9.9856)">
            <g transform="matrix(1.79901,0,0,0.488114,-1236.37,459.59)">
                <path d="M1573.22,903.786C1592.9,870.158 1569.61,838.618 1576.66,801.583" style="fill:none;stroke:rgb(239,218,185);stroke-width:8.05px;"/>
            </g>
            <g transform="matrix(1.79901,0,0,0.488114,-1209.53,462.121)">
                <path d="M1573.22,903.786C1592.9,870.158 1569.61,838.618 1576.66,801.583" style="fill:none;stroke:rgb(239,218,185);stroke-width:8.08px;"/>
            </g>
        </g>
        <g transform="matrix(8.1562,0,0,8.70537,1521.81,897.187)">
            <path d="M20,8L18,8L18,5L20,5M20,3L4,3L4,13C4,15.194 5.806,17 8,17L14,17C16.194,17 18,15.194 18,13L18,10L20,10C21.097,10 22,9.097 22,8L22,5C22,3.89 21.1,3 20,3Z" style="fill:rgb(239,218,185);fill-rule:nonzero;"/>
        </g>
    </g>
    <g transform="matrix(1,0,0,1,-1037.94,-695.841)">
        <g transform="matrix(220.699,0,0,220.699,1259.27,932.615)">
            <path d="M0.372,0.01C0.271,0.01 0.191,-0.012 0.132,-0.057C0.073,-0.101 0.041,-0.169 0.037,-0.261C0.036,-0.279 0.036,-0.308 0.036,-0.349C0.036,-0.39 0.036,-0.42 0.037,-0.439C0.041,-0.528 0.073,-0.596 0.134,-0.642C0.195,-0.687 0.274,-0.71 0.372,-0.71C0.432,-0.71 0.487,-0.701 0.538,-0.683C0.588,-0.665 0.629,-0.637 0.661,-0.599C0.692,-0.56 0.708,-0.512 0.709,-0.454C0.709,-0.448 0.707,-0.443 0.703,-0.439C0.698,-0.434 0.693,-0.432 0.687,-0.432L0.483,-0.432C0.472,-0.432 0.465,-0.434 0.46,-0.438C0.455,-0.442 0.45,-0.45 0.446,-0.461C0.439,-0.481 0.429,-0.495 0.417,-0.503C0.405,-0.511 0.39,-0.515 0.371,-0.515C0.348,-0.515 0.33,-0.509 0.317,-0.497C0.304,-0.484 0.298,-0.463 0.297,-0.434C0.296,-0.416 0.296,-0.388 0.296,-0.351C0.296,-0.314 0.296,-0.285 0.297,-0.266C0.298,-0.237 0.304,-0.216 0.317,-0.203C0.33,-0.191 0.348,-0.185 0.371,-0.185C0.409,-0.185 0.434,-0.203 0.446,-0.239C0.449,-0.25 0.454,-0.258 0.459,-0.262C0.464,-0.266 0.472,-0.268 0.483,-0.268L0.687,-0.268C0.693,-0.268 0.698,-0.266 0.703,-0.262C0.707,-0.257 0.709,-0.252 0.709,-0.246C0.708,-0.188 0.692,-0.14 0.661,-0.102C0.629,-0.063 0.588,-0.035 0.538,-0.017C0.487,0.001 0.432,0.01 0.372,0.01Z" style="fill:rgb(239,218,185);fill-rule:nonzero;"/>
        </g>
        <g transform="matrix(220.699,0,0,220.699,1421.04,932.615)">
            <path d="M0.321,0.01C0.138,0.01 0.041,-0.064 0.031,-0.213C0.03,-0.223 0.03,-0.239 0.03,-0.26C0.03,-0.281 0.03,-0.297 0.031,-0.307C0.036,-0.38 0.063,-0.435 0.114,-0.473C0.165,-0.511 0.234,-0.53 0.321,-0.53C0.408,-0.53 0.477,-0.511 0.528,-0.473C0.579,-0.435 0.606,-0.38 0.611,-0.307C0.612,-0.287 0.613,-0.271 0.613,-0.26C0.613,-0.249 0.612,-0.233 0.611,-0.213C0.601,-0.064 0.504,0.01 0.321,0.01ZM0.321,-0.15C0.339,-0.15 0.351,-0.155 0.356,-0.165C0.361,-0.174 0.365,-0.192 0.366,-0.218C0.367,-0.225 0.367,-0.239 0.367,-0.26C0.367,-0.281 0.367,-0.295 0.366,-0.302C0.364,-0.327 0.36,-0.345 0.355,-0.355C0.35,-0.365 0.338,-0.37 0.321,-0.37C0.304,-0.37 0.292,-0.365 0.287,-0.355C0.282,-0.345 0.278,-0.327 0.276,-0.302L0.275,-0.26L0.276,-0.218C0.277,-0.192 0.281,-0.174 0.286,-0.165C0.291,-0.155 0.303,-0.15 0.321,-0.15Z" style="fill:rgb(239,218,185);fill-rule:nonzero;"/>
        </g>
        <g transform="matrix(220.699,0,0,220.699,1562.73,932.615)">
            <path d="M0.244,0.01C0.182,0.01 0.132,-0.009 0.094,-0.046C0.056,-0.083 0.035,-0.142 0.032,-0.221L0.031,-0.261L0.032,-0.3C0.035,-0.375 0.056,-0.433 0.095,-0.471C0.134,-0.51 0.183,-0.53 0.244,-0.53C0.298,-0.53 0.342,-0.514 0.377,-0.483L0.377,-0.683C0.377,-0.69 0.38,-0.697 0.385,-0.702C0.39,-0.707 0.397,-0.71 0.404,-0.71L0.589,-0.71C0.596,-0.71 0.603,-0.707 0.608,-0.702C0.613,-0.697 0.616,-0.69 0.616,-0.683L0.616,-0.027C0.616,-0.02 0.613,-0.013 0.608,-0.008C0.603,-0.003 0.596,0 0.589,0L0.419,0C0.412,0 0.405,-0.003 0.4,-0.008C0.395,-0.013 0.392,-0.02 0.392,-0.027L0.392,-0.05C0.357,-0.01 0.307,0.01 0.244,0.01ZM0.327,-0.169C0.344,-0.169 0.357,-0.174 0.364,-0.184C0.371,-0.193 0.376,-0.208 0.377,-0.227C0.378,-0.247 0.379,-0.259 0.379,-0.264C0.379,-0.269 0.378,-0.281 0.377,-0.301C0.376,-0.318 0.371,-0.33 0.364,-0.339C0.356,-0.347 0.344,-0.351 0.327,-0.351C0.31,-0.351 0.298,-0.346 0.291,-0.337C0.283,-0.328 0.279,-0.313 0.277,-0.293C0.276,-0.286 0.276,-0.275 0.276,-0.26C0.276,-0.245 0.276,-0.234 0.277,-0.227C0.279,-0.207 0.283,-0.192 0.291,-0.183C0.298,-0.174 0.31,-0.169 0.327,-0.169Z" style="fill:rgb(239,218,185);fill-rule:nonzero;"/>
        </g>
        <g transform="matrix(220.699,0,0,220.699,1708.62,932.615)">
            <path d="M0.314,0.01C0.223,0.01 0.153,-0.012 0.103,-0.057C0.053,-0.101 0.028,-0.168 0.028,-0.259L0.028,-0.266C0.029,-0.351 0.056,-0.416 0.107,-0.462C0.158,-0.507 0.226,-0.53 0.313,-0.53C0.376,-0.53 0.429,-0.518 0.471,-0.494C0.515,-0.469 0.546,-0.437 0.567,-0.396C0.588,-0.355 0.598,-0.309 0.598,-0.258L0.598,-0.228C0.598,-0.221 0.595,-0.214 0.59,-0.209C0.585,-0.204 0.578,-0.201 0.571,-0.201L0.273,-0.201L0.273,-0.196C0.273,-0.175 0.276,-0.16 0.282,-0.15C0.288,-0.14 0.298,-0.135 0.312,-0.135C0.317,-0.135 0.322,-0.136 0.325,-0.139C0.328,-0.141 0.334,-0.146 0.341,-0.153C0.347,-0.159 0.352,-0.163 0.356,-0.165C0.36,-0.166 0.366,-0.167 0.374,-0.167L0.563,-0.167C0.569,-0.167 0.574,-0.165 0.579,-0.162C0.583,-0.158 0.585,-0.153 0.585,-0.147C0.585,-0.128 0.575,-0.107 0.554,-0.082C0.533,-0.057 0.502,-0.035 0.462,-0.017C0.421,0.001 0.371,0.01 0.314,0.01ZM0.353,-0.326L0.353,-0.327C0.353,-0.369 0.34,-0.39 0.313,-0.39C0.286,-0.39 0.273,-0.369 0.273,-0.327L0.273,-0.326L0.353,-0.326Z" style="fill:rgb(239,218,185);fill-rule:nonzero;"/>
        </g>
        <g transform="matrix(220.699,0,0,220.699,1846.11,932.615)">
            <path d="M0.417,0.01C0.354,0.01 0.304,-0.01 0.269,-0.05L0.269,-0.027C0.269,-0.02 0.266,-0.013 0.261,-0.008C0.256,-0.003 0.249,0 0.242,0L0.072,0C0.065,0 0.058,-0.003 0.053,-0.008C0.048,-0.013 0.045,-0.02 0.045,-0.027L0.045,-0.683C0.045,-0.69 0.048,-0.697 0.053,-0.702C0.058,-0.707 0.065,-0.71 0.072,-0.71L0.257,-0.71C0.264,-0.71 0.271,-0.707 0.276,-0.702C0.281,-0.697 0.284,-0.69 0.284,-0.683L0.284,-0.483C0.319,-0.514 0.363,-0.53 0.417,-0.53C0.478,-0.53 0.528,-0.51 0.567,-0.471C0.606,-0.433 0.626,-0.375 0.629,-0.3C0.63,-0.29 0.63,-0.277 0.63,-0.261C0.63,-0.244 0.63,-0.231 0.629,-0.221C0.626,-0.142 0.605,-0.083 0.567,-0.046C0.529,-0.009 0.479,0.01 0.417,0.01ZM0.334,-0.169C0.351,-0.169 0.364,-0.174 0.371,-0.183C0.378,-0.192 0.382,-0.207 0.384,-0.227C0.385,-0.24 0.386,-0.251 0.386,-0.26C0.386,-0.269 0.385,-0.28 0.384,-0.293C0.382,-0.313 0.378,-0.328 0.371,-0.337C0.364,-0.346 0.351,-0.351 0.334,-0.351C0.317,-0.351 0.305,-0.347 0.298,-0.339C0.29,-0.33 0.285,-0.318 0.284,-0.301C0.283,-0.291 0.283,-0.279 0.283,-0.264C0.283,-0.249 0.283,-0.237 0.284,-0.227C0.285,-0.208 0.29,-0.193 0.297,-0.184C0.304,-0.174 0.317,-0.169 0.334,-0.169Z" style="fill:rgb(239,218,185);fill-rule:nonzero;"/>
        </g>
        <g transform="matrix(220.699,0,0,220.699,1986.92,932.615)">
            <path d="M0.148,0.19C0.142,0.19 0.137,0.188 0.133,0.184C0.128,0.18 0.126,0.175 0.126,0.169C0.126,0.168 0.126,0.167 0.126,0.165C0.125,0.163 0.126,0.161 0.127,0.159L0.207,-0.033L0.014,-0.489C0.013,-0.491 0.013,-0.493 0.013,-0.496C0.014,-0.503 0.017,-0.508 0.022,-0.513C0.027,-0.518 0.032,-0.52 0.038,-0.52L0.207,-0.52C0.222,-0.52 0.233,-0.512 0.239,-0.496L0.321,-0.268L0.406,-0.496C0.413,-0.512 0.424,-0.52 0.44,-0.52L0.607,-0.52C0.613,-0.52 0.618,-0.518 0.623,-0.514C0.628,-0.509 0.63,-0.504 0.63,-0.499C0.63,-0.495 0.63,-0.492 0.629,-0.489L0.347,0.166C0.34,0.182 0.329,0.19 0.312,0.19L0.148,0.19Z" style="fill:rgb(239,218,185);fill-rule:nonzero;"/>
        </g>
        <g transform="matrix(220.699,0,0,220.699,2127.28,932.615)">
            <path d="M0.367,0C0.288,0 0.227,-0.017 0.183,-0.05C0.139,-0.083 0.117,-0.138 0.117,-0.215L0.117,-0.345L0.038,-0.345C0.031,-0.345 0.024,-0.348 0.019,-0.353C0.014,-0.358 0.011,-0.365 0.011,-0.372L0.011,-0.493C0.011,-0.5 0.014,-0.507 0.019,-0.512C0.024,-0.517 0.031,-0.52 0.038,-0.52L0.117,-0.52L0.117,-0.683C0.117,-0.69 0.12,-0.697 0.125,-0.702C0.13,-0.707 0.137,-0.71 0.144,-0.71L0.319,-0.71C0.326,-0.71 0.333,-0.707 0.338,-0.702C0.343,-0.697 0.346,-0.69 0.346,-0.683L0.346,-0.52L0.472,-0.52C0.479,-0.52 0.486,-0.517 0.491,-0.512C0.496,-0.507 0.499,-0.5 0.499,-0.493L0.499,-0.372C0.499,-0.365 0.496,-0.358 0.491,-0.353C0.486,-0.348 0.479,-0.345 0.472,-0.345L0.346,-0.345L0.346,-0.235C0.346,-0.202 0.36,-0.185 0.389,-0.185L0.48,-0.185C0.487,-0.185 0.494,-0.182 0.499,-0.177C0.504,-0.172 0.507,-0.165 0.507,-0.158L0.507,-0.027C0.507,-0.02 0.504,-0.013 0.499,-0.008C0.494,-0.003 0.487,0 0.48,0L0.367,0Z" style="fill:rgb(239,218,185);fill-rule:nonzero;"/>
        </g>
        <g transform="matrix(220.699,0,0,220.699,2244.7,932.615)">
            <path d="M0.314,0.01C0.223,0.01 0.153,-0.012 0.103,-0.057C0.053,-0.101 0.028,-0.168 0.028,-0.259L0.028,-0.266C0.029,-0.351 0.056,-0.416 0.107,-0.462C0.158,-0.507 0.226,-0.53 0.313,-0.53C0.376,-0.53 0.429,-0.518 0.471,-0.494C0.515,-0.469 0.546,-0.437 0.567,-0.396C0.588,-0.355 0.598,-0.309 0.598,-0.258L0.598,-0.228C0.598,-0.221 0.595,-0.214 0.59,-0.209C0.585,-0.204 0.578,-0.201 0.571,-0.201L0.273,-0.201L0.273,-0.196C0.273,-0.175 0.276,-0.16 0.282,-0.15C0.288,-0.14 0.298,-0.135 0.312,-0.135C0.317,-0.135 0.322,-0.136 0.325,-0.139C0.328,-0.141 0.334,-0.146 0.341,-0.153C0.347,-0.159 0.352,-0.163 0.356,-0.165C0.36,-0.166 0.366,-0.167 0.374,-0.167L0.563,-0.167C0.569,-0.167 0.574,-0.165 0.579,-0.162C0.583,-0.158 0.585,-0.153 0.585,-0.147C0.585,-0.128 0.575,-0.107 0.554,-0.082C0.533,-0.057 0.502,-0.035 0.462,-0.017C0.421,0.001 0.371,0.01 0.314,0.01ZM0.353,-0.326L0.353,-0.327C0.353,-0.369 0.34,-0.39 0.313,-0.39C0.286,-0.39 0.273,-0.369 0.273,-0.327L0.273,-0.326L0.353,-0.326Z" style="fill:rgb(239,218,185);fill-rule:nonzero;"/>
        </g>
    </g>
</svg>
