<svg viewBox="0 0 1339 279" xmlns="http://www.w3.org/2000/svg" fill-rule="evenodd" clip-rule="evenodd" stroke-linecap="round" stroke-miterlimit="1.5"><path d="M1573.2 903.8c19.7-33.6-3.6-65.2 3.5-102.2" fill="none" stroke="#efdab9" stroke-width="8.1" transform="matrix(2.1968 0 0 .59605 -3406.7 -466.1)"/><path d="M1573.2 903.8c19.7-33.6-3.6-65.2 3.5-102.2" fill="none" stroke="#efdab9" stroke-width="8.1" transform="matrix(2.1968 0 0 .59605 -3373.9 -463)"/><g><path d="M159.4 141.1h-20v-31.9h20m0-21.3H0v106.3c0 23.4 18 42.6 39.8 42.6h59.8c21.8 0 39.8-19.2 39.8-42.6v-31.8h20c10.9 0 19.9-9.6 19.9-21.3v-31.9c0-11.8-9-21.3-20-21.3z" fill="#efdab9" fill-rule="nonzero"/></g><g><path d="M303.4 239c-22.3 0-40-4.9-53-14.8-13-9.7-20-24.7-20.9-45-.2-4-.2-10.4-.2-19.4 0-9.1 0-15.7.2-20 .9-19.6 8-34.6 21.4-44.7 13.5-10 30.9-15 52.5-15 13.3 0 25.4 2 36.7 6 11 4 20 10 27.1 18.5a51.2 51.2 0 0110.6 32c0 1.3-.4 2.4-1.3 3.3a4.7 4.7 0 01-3.5 1.5h-45c-2.5 0-4-.4-5.1-1.3-1.2-.9-2.3-2.6-3.1-5a17.8 17.8 0 00-6.4-9.3c-2.7-1.8-6-2.7-10.2-2.7-5 0-9 1.3-12 4-2.8 2.9-4.1 7.5-4.3 13.9-.2 4-.2 10.1-.2 18.3 0 8.2 0 14.6.2 18.8.2 6.4 1.5 11 4.4 13.9 2.9 2.6 6.8 4 12 4 8.3 0 13.8-4 16.5-12a10 10 0 012.8-5c1.1-1 2.9-1.4 5.3-1.4h45c1.4 0 2.5.5 3.6 1.4a5.4 5.4 0 011.3 3.5 50 50 0 01-10.6 31.8 61 61 0 01-27.1 18.7 109 109 0 01-36.7 6zM454 239c-40.4 0-61.9-16.4-64-49.2-.3-2.2-.3-5.8-.3-10.4 0-4.6 0-8.2.2-10.4 1.1-16 7.1-28.2 18.4-36.6 11.2-8.4 26.4-12.6 45.6-12.6 19.2 0 34.5 4.2 45.7 12.6A46.9 46.9 0 01518 169c.3 4.4.5 8 .5 10.4 0 2.4-.2 6-.5 10.4-2.2 32.8-23.6 49.2-64 49.2zm0-35.3c4 0 6.6-1.1 7.7-3.3 1-2 2-6 2.2-11.7.2-1.6.2-4.7.2-9.3 0-4.6 0-7.7-.2-9.3a35 35 0 00-2.5-11.7c-1-2.2-3.7-3.3-7.5-3.3-3.7 0-6.4 1.1-7.5 3.3a35 35 0 00-2.4 11.7l-.2 9.3.2 9.3a29 29 0 002.2 11.7c1.1 2.2 3.8 3.3 7.7 3.3zM578.6 239a45.5 45.5 0 01-33-12.4c-8.5-8.1-13-21.2-13.7-38.6l-.3-8.8.3-8.6c.6-16.6 5.2-29.4 13.9-37.8 8.6-8.6 19.4-13 32.8-13 12 0 21.7 3.5 29.4 10.4V86a6 6 0 016-6h40.8a6 6 0 016 6v144.8a6 6 0 01-6 6h-37.5a6 6 0 01-6-6v-5a41.3 41.3 0 01-32.7 13.2zm18.4-39.5c3.7 0 6.6-1.1 8.1-3.3 1.6-2 2.7-5.3 2.9-9.5l.4-8.2-.4-8.2c-.2-3.7-1.3-6.4-2.9-8.3-1.7-1.8-4.4-2.7-8.1-2.7-3.8 0-6.4 1.1-8 3.1-1.8 2-2.6 5.3-3 9.7-.3 1.6-.3 4-.3 7.3s0 5.7.2 7.3c.5 4.4 1.3 7.7 3.1 9.7 1.6 2 4.2 3 8 3zM740 239c-20.1 0-35.6-4.9-46.6-14.8-11-9.7-16.5-24.5-16.5-44.6v-1.5a56.2 56.2 0 0117.4-43.3 66 66 0 0145.5-15c13.9 0 25.6 2.7 34.8 8a51.2 51.2 0 0121.2 21.6c4.7 9 6.9 19.2 6.9 30.4v6.7a6 6 0 01-6 6h-65.8v1c0 4.7.7 8 2 10.2 1.3 2.2 3.5 3.3 6.6 3.3 1.1 0 2.2-.2 3-.9.6-.4 1.9-1.5 3.4-3 1.4-1.4 2.5-2.3 3.3-2.7 1-.3 2.3-.5 4-.5H795c1.4 0 2.5.5 3.6 1.1.8.9 1.3 2 1.3 3.3 0 4.2-2.2 8.9-6.9 14.4a56.3 56.3 0 01-20.3 14.3c-9 4-20 6-32.6 6zm8.6-74.2v-.2c0-9.3-2.9-13.9-8.8-13.9-6 0-8.9 4.6-8.9 14v.1h17.7zM900.2 239c-13.9 0-25-4.4-32.7-13.3v5.1a6 6 0 01-6 6h-37.4a6 6 0 01-6-6V86a6 6 0 016-6h40.8a6 6 0 016 6v44.2a42.6 42.6 0 0129.3-10.4c13.5 0 24.5 4.4 33.1 13 8.6 8.4 13 21.2 13.7 37.8.2 2.2.2 5 .2 8.6 0 3.7 0 6.6-.2 8.8-.7 17.4-5.3 30.5-13.7 38.6a45.5 45.5 0 01-33.1 12.4zm-18.3-39.5c3.7 0 6.6-1.1 8.1-3.1 1.6-2 2.5-5.3 3-9.7.1-2.9.4-5.3.4-7.3s-.3-4.4-.5-7.3c-.4-4.4-1.3-7.7-2.9-9.7-1.5-2-4.4-3-8.1-3-3.8 0-6.4.8-8 2.6-1.7 2-2.8 4.6-3 8.3-.3 2.3-.3 4.9-.3 8.2 0 3.3 0 6 .2 8.2.3 4.2 1.4 7.5 3 9.5 1.5 2.2 4.3 3.3 8 3.3zM981.6 278.7c-1.3 0-2.4-.4-3.3-1.3a4 4 0 01-1.5-3.3v-1c-.2-.4 0-.8.2-1.2l17.7-42.4L952 128.9c-.3-.5-.3-1-.3-1.6.3-1.5 1-2.6 2-3.7a4.7 4.7 0 013.6-1.6h37.3c3.3 0 5.7 1.8 7 5.3l18.1 50.3 18.8-50.3c1.5-3.5 4-5.3 7.5-5.3h36.8c1.4 0 2.5.5 3.6 1.3a4.6 4.6 0 011.5 3.3c0 1 0 1.6-.2 2.3l-62.2 144.5c-1.6 3.5-4 5.3-7.8 5.3h-36.2zM1170.3 236.8c-17.4 0-30.9-3.8-40.6-11-9.7-7.3-14.5-19.5-14.5-36.5v-28.7h-17.5a6 6 0 01-6-6V128a6 6 0 016-6h17.5V86a6 6 0 016-6h38.5a6 6 0 016 6v36h27.8a6 6 0 016 6v26.7a6 6 0 01-6 6h-27.8v24.2c0 7.3 3 11 9.5 11h20a6 6 0 016 6v29a6 6 0 01-6 5.9h-24.9zM1276 239c-20 0-35.5-4.9-46.5-14.8-11-9.7-16.6-24.5-16.6-44.6v-1.5a56.2 56.2 0 0117.5-43.3 66 66 0 0145.4-15c14 0 25.6 2.7 35 8a51.2 51.2 0 0121.1 21.6c4.6 9 6.8 19.2 6.8 30.4v6.7a6 6 0 01-6 6H1267v1c0 4.7.7 8 2 10.2 1.3 2.2 3.5 3.3 6.6 3.3 1.1 0 2.2-.2 2.9-.9.6-.4 2-1.5 3.5-3 1.3-1.4 2.4-2.3 3.3-2.7 1-.3 2.2-.5 4-.5h41.7c1.3 0 2.4.5 3.5 1.1 1 .9 1.4 2 1.4 3.3 0 4.2-2.2 8.9-6.9 14.4a56.3 56.3 0 01-20.3 14.3c-9 4-20 6-32.6 6zm8.7-74.2v-.2c0-9.3-2.9-13.9-8.9-13.9s-8.8 4.6-8.8 14v.1h17.7z" fill="#efdab9" fill-rule="nonzero"/></g></svg>